# xmcd CD database file
#
# Track frame offsets:
#	150
#	5038
#	20076
#	21843
#	40690
#	62370
#	68018
#	84097
#	91881
#	110430
#	113758
#	129986
#	137881
#	158442
#	174583
#	183669
#
# Disc length: 2689 seconds
#
# Revision: 1
# Processed by: cddbd v1.4PL0 Copyright (c) Steve Scherf et al.
# Submitted via: NotifyCDPlayer 1.60beta13
#
DISCID=c20a7f10
DTITLE=Dixie Chicks - Sessions At West 54th
DYEAR=1900
DGENRE=
TTITLE0=Introduction
TTITLE1=Tonight The Heartache's On Me
TTITLE2=Into To Ready To Run
TTITLE3=Ready To Run
TTITLE4=Cowboy Take Me Away
TTITLE5=Intro To There's Your Trouble
TTITLE6=There's Your Trouble
TTITLE7=Intro To You Were Mine
TTITLE8=You Were Mine
TTITLE9=Intro To Sin Wagon
TTITLE10=Sin Wagon
TTITLE11=Intro To Goodbye Earl
TTITLE12=Goodbye Earl
TTITLE13=Let Him Fly
TTITLE14=Intro To Wide Open Spaces
TTITLE15=Wide Open Spaces
EXTD=
EXTT0=
EXTT1=
EXTT2=
EXTT3=
EXTT4=
EXTT5=
EXTT6=
EXTT7=
EXTT8=
EXTT9=
EXTT10=
EXTT11=
EXTT12=
EXTT13=
EXTT14=
EXTT15=
PLAYORDER=
